HIERARCHY
ROOT Hips
{
  OFFSET 43.0842 91.1655 101.099
  CHANNELS 6 Xposition Yposition Zposition Zrotation Xrotation Yrotation
  JOINT LeftUpLeg
  {
    OFFSET 8.64259 1.95398 -2.38835
    CHANNELS 3 Zrotation Xrotation Yrotation
    JOINT LeftLeg
    {
      OFFSET 43.7702 0 0
      CHANNELS 3 Zrotation Xrotation Yrotation
      JOINT LeftFoot
      {
        OFFSET 40.6238 0 0
        CHANNELS 3 Zrotation Xrotation Yrotation
        JOINT LeftToeBase
        {
          OFFSET 12.7242 0 0
          CHANNELS 3 Zrotation Xrotation Yrotation
          End Site
          {
            OFFSET 0 0 0
          }
        }
      }
    }
  }
  JOINT RightUpLeg
  {
    OFFSET -8.2249 1.95398 -2.59336
    CHANNELS 3 Zrotation Xrotation Yrotation
    JOINT RightLeg
    {
      OFFSET 43.5653 0 0
      CHANNELS 3 Zrotation Xrotation Yrotation
      JOINT RightFoot
      {
        OFFSET 40.6238 0 0
        CHANNELS 3 Zrotation Xrotation Yrotation
        JOINT RightToeBase
        {
          OFFSET 12.7242 0 0
          CHANNELS 3 Zrotation Xrotation Yrotation
          End Site
          {
            OFFSET 0 0 0
          }
        }
      }
    }
  }
  JOINT Spine
  {
    OFFSET 0.165834 0.87714 6.61349
    CHANNELS 3 Zrotation Xrotation Yrotation
    JOINT Spine1
    {
      OFFSET 7.38963 1.71661e-005 0
      CHANNELS 3 Zrotation Xrotation Yrotation
      JOINT Spine2
      {
        OFFSET 11.9445 1.14441e-005 0
        CHANNELS 3 Zrotation Xrotation Yrotation
        JOINT Spine3
        {
          OFFSET 14.7254 4.19617e-005 0
          CHANNELS 3 Zrotation Xrotation Yrotation
          JOINT Spine4
          {
            OFFSET 10.9679 0 0
            CHANNELS 3 Zrotation Xrotation Yrotation
            JOINT RightShoulder
            {
              OFFSET 2.46616 -1.6653 3.69651
              CHANNELS 3 Zrotation Xrotation Yrotation
              JOINT RightArm
              {
                OFFSET 13.0012 0 0
                CHANNELS 3 Zrotation Xrotation Yrotation
                JOINT RightForeArm
                {
                  OFFSET 28.7848 1.52588e-005 0
                  CHANNELS 3 Zrotation Xrotation Yrotation
                  JOINT RightHand
                  {
                    OFFSET 26.5688 1.52588e-005 0
                    CHANNELS 3 Zrotation Xrotation Yrotation
                    End Site
                    {
                      OFFSET 0 0 0
                    }
                  }
                }
              }
            }
            JOINT LeftShoulder
            {
              OFFSET 2.38034 -1.29275 -3.7523
              CHANNELS 3 Zrotation Xrotation Yrotation
              JOINT LeftArm
              {
                OFFSET 16.3182 6.10351e-005 0
                CHANNELS 3 Zrotation Xrotation Yrotation
                JOINT LeftForeArm
                {
                  OFFSET 27.0901 0 0
                  CHANNELS 3 Zrotation Xrotation Yrotation
                  JOINT LeftHand
                  {
                    OFFSET 24.5451 1.52588e-005 0
                    CHANNELS 3 Zrotation Xrotation Yrotation
                    End Site
                    {
                      OFFSET 0 0 0
                    }
                  }
                }
              }
            }
            JOINT Neck
            {
              OFFSET 5.0226 -0.0266342 0
              CHANNELS 3 Zrotation Xrotation Yrotation
              JOINT Head
              {
                OFFSET 6.69364 2.86102e-005 0
                CHANNELS 3 Zrotation Xrotation Yrotation
                End Site
                {
                  OFFSET 0 0 0
                }
              }
            }
          }
        }
      }
    }
  }
}
MOTION
Frames:	12
Frame Time:	0.0333333
39.7075 90.4222 97.9444 -95.1527 -32.4941 -95.1872 -171.481 17.8903 98.0914 -29.1998 18.7302 -4.11675 59.896 -2.5539 11.2345 31.3913 -1.67088 8.15835 171.807 7.57635 81.7601 -31.0395 -3.60127 -3.28986 72.1939 -10.5033 -6.7952 40.1204 -6.33851 0.578572 -4.00161 11.8124 -86.7501 3.36759 -6.69547 6.29008 -8.3026 -6.41269 6.57816 -30.9217 -8.27436 3.98291 -10.9091 -8.27435 3.98291 107.397 3.35584 -60.3434 -0.659852 -46.0231 175.86 -14.6567 6.02786 -100.833 -3.13897 1.18617 8.21163 -67.0357 -15.2362 123.011 -110.046 -47.0849 -108.992 7.2729 22.9226 -106.696 11.6173 0.606568 6.23099 74.0377 34.6442 -8.62333 -13.7998 37.8144 -14.0228 
39.7632 90.3469 97.8645 -94.9301 -32.6077 -94.9611 -171.199 18.643 98.3095 -29.8033 18.6829 -4.38723 59.7903 -2.73704 11.0344 31.6587 -1.28289 8.17555 171.792 7.84674 81.8232 -31.3503 -3.65716 -3.16303 72.4156 -10.6763 -6.42527 39.8079 -6.09265 0.218935 -2.95151 10.9312 -87.7184 5.1521 -4.99305 4.79937 -6.51994 -4.7775 5.014 -29.0752 -6.20085 3.07822 -9.06256 -6.20084 3.07822 108.024 -8.32558 -59.4013 -5.7179 -62.43 -158.731 -10.7176 4.40603 -103.43 -4.92838 0.604318 8.7396 -66.9353 -27.1193 122.458 -95.019 -55.8087 -100.645 3.92485 21.8093 -104.964 11.9732 0.677752 6.21526 53.4961 31.585 -2.72706 -12.9804 34.2254 -8.63962 
39.6414 90.3699 97.7692 -95.526 -33.2116 -95.0768 -170.579 18.5392 98.6985 -29.8922 18.0129 -4.53361 59.847 -2.22509 9.84706 31.6385 -1.26887 8.10955 171.431 7.22284 82.0225 -31.2071 -3.04564 -2.96143 72.4176 -10.4478 -6.45844 40.1724 -6.41765 0.808667 0.964782 7.16542 -90.2321 12.5399 1.81536 -0.784299 0.870449 1.77913 -0.863431 -21.685 1.96664 -0.202706 -1.67234 1.96665 -0.202712 92.7991 -37.6611 -99.772 12.901 -21.9342 -65.3255 -1.74067 -7.83511 -108.794 -8.68196 -0.609374 10.2455 -105.334 -55.4653 57.898 4.85056 -65.1689 -16.4512 -4.8582 22.178 -99.231 12.1928 0.846503 4.8411 -19.2218 17.608 17.2959 -2.13876 17.1728 9.68532 
39.5395 90.3167 97.7125 -95.7746 -33.5309 -95.2001 -170.139 18.6271 98.9653 -30.0434 18.235 -4.86695 59.9439 -2.17973 9.70119 31.8118 -1.16308 8.33809 171.224 6.9776 82.0259 -31.3858 -3.37785 -2.84609 72.4701 -10.6063 -6.85167 40.138 -6.32969 0.496691 0.641306 7.48088 -90.1081 11.9146 1.2243 -0.347344 0.244116 1.20783 -0.4009 -22.2957 1.27209 0.0367284 -2.28302 1.27209 0.0367212 95.5492 -37.9729 -94.0682 16.1628 -27.0822 -64.9428 -4.29038 -5.99101 -108.902 -9.63448 -0.987062 9.75169 -99.5038 -56.3997 66.908 -3.10854 -66.3742 -24.2634 -3.88146 22.1791 -99.5819 11.6842 0.731601 5.04453 -13.9294 19.0035 15.21 -3.07337 18.9034 8.16869 
39.4424 90.2631 97.7171 -95.9103 -33.984 -95.2686 -169.937 18.8467 99.1205 -30.2978 18.7141 -5.10015 59.9969 -2.25256 9.8265 31.8359 -1.06866 8.25015 171.228 6.80593 82.1649 -31.557 -3.12001 -2.86368 72.5065 -10.7402 -7.32676 40.2032 -6.35016 0.437483 0.598039 7.47405 -90.1178 11.928 1.13365 -0.357088 0.257469 1.11687 -0.406653 -22.2816 1.18855 0.000171515 -2.269 1.18857 0.000177149 95.5254 -38.201 -94.0718 15.9421 -26.4912 -65.401 -4.4464 -6.01744 -109.195 -9.14582 -0.808642 9.7819 -99.1669 -56.1202 67.2781 -3.51921 -66.4686 -25.1563 -3.52571 22.4422 -99.4995 13.083 0.980553 5.25148 -14.1656 19.014 15.1071 -2.5687 18.9817 8.10591 
39.3891 90.2247 97.7931 -95.968 -34.5958 -95.3132 -169.923 19.0917 99.0283 -30.6415 17.4499 -5.03891 60.237 -1.72855 8.57304 31.7138 -1.27892 8.29201 171.046 6.55417 82.1774 -31.4647 -2.83312 -2.76299 72.847 -11.1142 -7.34041 39.5886 -5.89618 -0.128912 0.558515 7.45387 -90.1201 11.9681 1.0539 -0.353822 0.29756 1.03732 -0.399877 -22.241 1.11152 -0.0206821 -2.22836 1.11151 -0.0206866 95.5291 -38.5979 -93.997 16.1654 -25.8396 -65.2246 -2.69468 -6.43942 -109.585 -8.41488 -0.530264 10.0396 -98.7187 -55.7159 67.764 -4.63455 -66.2664 -26.6544 -3.61332 22.5957 -99.1187 13.5327 1.05527 5.39739 -14.0639 18.902 14.8864 -2.50084 18.8621 8.10498 
39.3984 90.1797 97.9335 -95.9232 -34.8056 -95.4129 -169.984 19.2675 98.8438 -30.9584 17.5676 -5.06262 60.2558 -1.78114 8.58569 31.9077 -1.0876 8.43981 170.827 6.59503 81.9423 -31.5145 -2.97309 -2.6867 72.8157 -11.1555 -7.52581 39.7597 -5.96464 -0.227032 0.564273 7.43064 -90.1225 12.0147 1.06412 -0.360264 0.344119 1.04722 -0.406765 -22.1945 1.1232 -0.0237534 -2.18187 1.12318 -0.023764 95.4698 -38.8119 -94.0669 16.2688 -25.8481 -64.8273 -2.94444 -6.30491 -109.882 -9.063 -0.777542 9.81082 -98.783 -55.7537 67.6874 -5.42504 -66.3412 -27.6212 -3.59781 22.7683 -99.0629 13.6931 1.10552 5.14624 -14.0871 18.5572 15.2316 -2.10648 18.5322 7.7217 
39.3831 90.1892 98.0925 -96.0558 -35.0397 -95.5228 -170.001 19.1453 98.7487 -30.904 18.5131 -5.09835 60.197 -1.86385 8.98203 32.0444 -1.3115 9.08107 170.64 6.47902 81.8287 -31.5405 -2.46946 -2.65441 72.9245 -11.2129 -7.19845 39.7021 -5.91422 -0.3119 0.556566 7.43086 -90.1396 12.0143 1.04068 -0.391873 0.343732 1.02242 -0.4373 -22.1947 1.11034 -0.0609538 -2.18209 1.11033 -0.0609552 95.4329 -38.9367 -94.1115 16.0817 -26.2424 -64.6554 -4.579 -5.82833 -109.942 -9.84155 -1.06876 9.59281 -98.9347 -55.9127 67.5298 -5.71032 -66.4136 -27.9475 -3.62828 22.7137 -99.0696 13.7644 1.11318 5.22193 -13.9361 18.3373 15.3368 -2.0959 18.292 7.98641 
39.3642 90.1319 98.2274 -96.1242 -35.019 -95.6508 -169.922 19.074 98.6298 -30.9551 19.1055 -5.15118 59.9957 -2.06034 8.95424 32.5827 -1.0097 9.85169 170.535 6.46694 81.6113 -31.6571 -2.38297 -2.68594 73.1416 -11.3176 -6.91558 39.7395 -5.94189 -0.277154 0.559314 7.42429 -90.14 12.0275 1.04605 -0.393397 0.35689 1.02771 -0.439058 -22.1816 1.11591 -0.0607988 -2.16898 1.11592 -0.0607951 95.3588 -38.93 -94.2448 16.6394 -26.3668 -64.3355 -3.82996 -6.13963 -109.754 -9.47107 -0.934541 9.60544 -98.8787 -55.9192 67.6088 -5.34425 -66.4855 -27.3663 -3.6617 22.8268 -99.0127 14.3547 1.23791 5.05832 -13.7261 18.2904 15.397 -2.60124 18.1814 7.98988 
39.3208 90.1287 98.3265 -96.0868 -35.1058 -95.5796 -169.863 19.1829 98.6805 -31.15 19.3848 -5.21695 60.1066 -1.98883 9.5067 32.3577 -1.10084 9.47532 170.536 6.34993 81.6359 -31.4447 -1.98091 -2.68268 72.9877 -11.2022 -6.76744 40.1755 -6.22465 -0.0567351 0.556997 7.41588 -90.1461 12.0443 1.03843 -0.404955 0.373733 1.01959 -0.450274 -22.1647 1.11213 -0.0741063 -2.15206 1.11212 -0.07411 95.3437 -38.9535 -94.2679 17.0287 -26.2231 -64.2681 -2.08244 -6.56237 -109.588 -8.65497 -0.621068 9.97926 -98.8619 -55.8849 67.6207 -5.80747 -66.4488 -27.612 -3.4467 22.6973 -98.8141 14.5688 1.26001 5.32346 -13.5098 18.1791 15.0594 -3.01644 18.0225 8.34973 
39.2675 90.089 98.4593 -96.2596 -35.229 -95.7418 -169.881 19.0941 98.6005 -31.351 19.8339 -5.22971 60.2186 -1.82639 9.69806 32.4574 -1.16777 9.80148 170.385 5.99984 81.5644 -31.185 -1.40964 -2.6997 73.5324 -11.767 -6.42046 39.4918 -5.75702 -0.502774 0.547374 7.42555 -90.1403 12.0251 1.02209 -0.391414 0.354536 1.00388 -0.43603 -22.1838 1.09247 -0.0661011 -2.17117 1.09246 -0.0661076 95.2569 -39.0645 -94.4033 16.7503 -26.0934 -64.2048 -2.42706 -6.47529 -109.5 -8.68684 -0.63491 9.93315 -98.888 -55.863 67.5781 -5.99204 -66.5197 -27.6844 -3.34169 22.6073 -98.5584 14.2007 1.17277 5.55954 -13.4896 17.9499 14.5129 -3.20756 17.7951 8.98625 
39.247 90.0668 98.5307 -96.1942 -35.1971 -95.6997 -169.89 19.1736 98.5591 -31.5281 20.64 -5.24236 60.3166 -1.70733 10.6004 32.1889 -1.49181 9.67339 170.532 6.09881 81.5888 -31.3523 -1.56764 -2.79158 73.3383 -11.4984 -6.68488 39.8054 -5.95443 -0.376748 0.565936 7.41774 -90.14 12.0375 1.05919 -0.395043 0.366946 1.04078 -0.441288 -22.1717 1.12893 -0.0584193 -2.159 1.12894 -0.0584175 95.3757 -38.8984 -94.2202 16.6762 -26.1598 -64.2806 -2.18778 -6.42833 -109.628 -8.40539 -0.514073 10.2451 -98.8287 -55.8511 67.6556 -5.93241 -66.5407 -27.6356 -3.04109 22.7879 -98.4433 14.3954 1.22508 5.35059 -13.4807 17.9074 14.7453 -2.89571 17.76 8.23575 
